<svg xmlns="http://www.w3.org/2000/svg" width="600" height="500" fill="none"><circle cx="300" cy="250" r="200" fill="#E5E7EB" opacity=".2"/><circle cx="300" cy="250" r="150" fill="#2563eb" opacity=".1"/><g transform="translate(200 100)"><rect width="80" height="120" x="60" y="80" fill="#2563eb" rx="40"/><circle cx="100" cy="60" r="40" fill="#FFB6B6"/><rect width="40" height="20" x="80" y="50" stroke="#1E293B" stroke-width="3" rx="10"/><rect width="60" height="20" x="30" y="100" fill="#2563eb" rx="10"/><rect width="60" height="20" x="110" y="100" fill="#2563eb" rx="10"/><g transform="translate(-50 -50)"><rect width="60" height="80" fill="#F3F4F6" rx="5"/><path stroke="#2563eb" stroke-width="3" d="M10 20h40M10 40h30M10 60h35"/></g><g transform="translate(190 -20)"><rect width="60" height="80" fill="#F3F4F6" rx="5"/><path stroke="#2563eb" stroke-width="3" d="M10 20h40M10 40h30M10 60h35"/></g></g><g transform="translate(450 200)"><circle r="15" fill="#2563eb"/><circle cx="40" cy="40" r="10" fill="#3B82F6"/><circle cx="-20" cy="30" r="8" fill="#60A5FA"/></g></svg>